<?xml version="1.0" encoding="UTF-8" standalone="no"?>
<!-- Created with Inkscape (http://www.inkscape.org/) -->

<svg
   xmlns:dc="http://purl.org/dc/elements/1.1/"
   xmlns:cc="http://creativecommons.org/ns#"
   xmlns:rdf="http://www.w3.org/1999/02/22-rdf-syntax-ns#"
   xmlns:svg="http://www.w3.org/2000/svg"
   xmlns="http://www.w3.org/2000/svg"
   xmlns:xlink="http://www.w3.org/1999/xlink"
   xmlns:sodipodi="http://sodipodi.sourceforge.net/DTD/sodipodi-0.dtd"
   xmlns:inkscape="http://www.inkscape.org/namespaces/inkscape"
   width="150"
   height="57"
   id="svg3318"
   version="1.1"
   inkscape:version="0.48.0 r9654"
   sodipodi:docname="MUI_HEADERIMAGE_BITMAP.svg"
   inkscape:export-filename="MUI_HEADERIMAGE_BITMAP.png"
   inkscape:export-xdpi="90"
   inkscape:export-ydpi="90">
  <defs
     id="defs3320">
    <radialGradient
       inkscape:collect="always"
       xlink:href="#linearGradient3941-7"
       id="radialGradient3293"
       gradientUnits="userSpaceOnUse"
       gradientTransform="matrix(-1.7364709,0.46528601,0.39277198,1.465845,587.57844,297.82726)"
       cx="354.96762"
       cy="237.77518"
       fx="354.96762"
       fy="237.77518"
       r="13.836595" />
    <linearGradient
       inkscape:collect="always"
       id="linearGradient3941-7">
      <stop
         style="stop-color:#926300;stop-opacity:1;"
         offset="0"
         id="stop3943-4" />
      <stop
         style="stop-color:#926300;stop-opacity:0;"
         offset="1"
         id="stop3945-0" />
    </linearGradient>
  </defs>
  <sodipodi:namedview
     id="base"
     pagecolor="#ffffff"
     bordercolor="#666666"
     borderopacity="1.0"
     inkscape:pageopacity="0.0"
     inkscape:pageshadow="2"
     inkscape:zoom="1.979899"
     inkscape:cx="181.35645"
     inkscape:cy="-53.743249"
     inkscape:document-units="px"
     inkscape:current-layer="layer1"
     showgrid="false"
     inkscape:window-width="1366"
     inkscape:window-height="741"
     inkscape:window-x="-9"
     inkscape:window-y="-9"
     inkscape:window-maximized="1" />
  <metadata
     id="metadata3323">
    <rdf:RDF>
      <cc:Work
         rdf:about="">
        <dc:format>image/svg+xml</dc:format>
        <dc:type
           rdf:resource="http://purl.org/dc/dcmitype/StillImage" />
        <dc:title></dc:title>
      </cc:Work>
    </rdf:RDF>
  </metadata>
  <g
     inkscape:label="Layer 1"
     inkscape:groupmode="layer"
     id="layer1"
     transform="translate(0,-995.36218)">
    <g
       transform="matrix(0.51818182,0,0,0.51818182,-1.5464693e-6,510.67451)"
       id="layer1-9"
       inkscape:label="Layer 1">
      <path
         sodipodi:nodetypes="csccscscccscsccsccscsscsscsscscscccscccsccccssscscscscscsccccsscccccssccccccccssccccsscccsccsccccccccccccsccccccccscsccccssscscccccccccccscsscccscscccsccsccscc"
         inkscape:connector-curvature="0"
         id="path2996-1-1-7"
         d="m 45.690229,1043.1051 c 2.040362,-1.6346 3.167276,-6.0054 2.664061,-10.3326 -0.351953,-3.026 -0.236833,-3.4073 1.474247,-4.8888 4.506882,-3.9036 8.187627,-10.1349 7.881495,-13.3424 -0.174943,-1.8323 -0.484864,-2.1397 -2.487352,-2.4677 -1.258175,-0.2064 -2.60834,-0.5757 -3.000444,-0.8255 -1.153648,-0.7278 -4.90001,0.8689 -7.237404,3.0847 -1.192535,1.1296 -3.467076,3.7592 -5.054482,5.8446 l -2.886113,3.7907 -4.007909,0 c -4.91773,0 -7.61427,1.487 -9.483896,5.219 -1.643693,3.2813 -1.661362,4.7519 -0.08084,6.7363 1.122941,1.4088 1.747339,1.5554 6.621612,1.5554 l 5.381788,0 0.391372,2.4385 c 0.215577,1.3402 0.76665,2.8978 1.225385,3.4605 1.243978,1.526 6.560509,1.3544 8.598474,-0.2825 z m 18.616776,-27.9642 c 0,-1.8085 -1.800951,-2.8599 -2.359359,-1.3784 -0.523398,1.3893 0.201733,2.9555 1.368109,2.9555 0.613998,0 0.991249,-0.5974 0.991249,-1.5771 z m 6.707258,-0.7277 c 0.565002,-1.5 -0.225335,-2.9663 -1.59797,-2.9663 -0.852218,0 -1.22543,0.4671 -1.22543,1.538 0,2.4449 2.049708,3.4811 2.8234,1.4283 z m 6.886271,-3.7288 c 0,-0.6408 -0.632343,-1.5141 -1.405201,-1.9344 -1.164433,-0.63 -1.552541,-0.5649 -2.265547,0.4344 -1.223896,1.7042 -1.071561,2.698 0.595782,3.8873 1.334992,0.9559 1.52349,0.945 2.265588,-0.1085 0.444954,-0.6191 0.809386,-1.6543 0.809386,-2.2972 z m -14.456427,-0.9341 c 0.537858,0.2172 1.719538,-0.2173 2.625945,-0.9341 0.906525,-0.7277 2.264271,-1.323 3.017281,-1.3251 0.753,0 2.242992,-0.5974 3.311032,-1.3143 1.068108,-0.7169 2.869046,-1.3109 4.002165,-1.3132 1.480263,0 2.174261,-0.3692 2.465678,-1.3066 0.222798,-0.7169 1.262191,-1.9225 2.309198,-2.6817 1.047115,-0.7603 1.903609,-1.94964 1.903609,-2.64477 0,-1.8921 4.289971,-4.36854 8.341083,-4.81386 1.917346,-0.20637 3.627679,-0.52135 3.80069,-0.706 0.173097,-0.17379 -0.483456,-1.70636 -1.458867,-3.40185 -1.488656,-2.58615 -1.709065,-3.55934 -1.372747,-6.05968 0.463832,-3.44529 -0.285722,-4.76171 -2.711897,-4.76171 -0.912092,0 -2.842577,-0.58653 -4.290055,-1.31317 -3.807784,-1.89861 -6.87832,-7.25662 -4.158959,-7.25662 0.363899,0 1.925729,1.05357 3.470282,2.34392 2.5513,2.12888 3.124098,2.32439 6.258329,2.14191 l 3.450017,-0.19551 0.582856,-2.82835 c 0.788909,-3.82654 -0.369551,-8.78159 -3.580624,-15.31593 -2.708921,-5.51116 -5.559296,-8.459 -10.762511,-11.12877 -3.73623,-1.91598 -12.436459,-3.97099 -14.116151,-3.33342 -0.735199,0.2824 -3.065541,0.706 -5.178522,0.95583 -7.219142,0.83633 -13.87955,2.29178 -15.658167,3.42464 -0.977437,0.61911 -3.24975,2.48405 -5.049578,4.13393 -1.799877,1.64987 -4.570095,4.06874 -6.156167,5.37322 -1.735369,1.42829 -3.642627,3.9004 -4.789597,6.20957 -1.838808,3.70162 -1.906992,4.16759 -1.935248,13.24027 l -0.02699,9.40396 1.901204,2.02133 c 3.23483,3.43878 5.394327,2.16363 4.622227,-2.72951 -0.398156,-2.52423 0.838289,-6.5517 2.14503,-6.98726 0.680347,-0.22809 0.811423,0.16292 0.535737,1.59883 -0.200827,1.04271 -0.06474,3.34211 0.301603,5.10603 0.508924,2.4482 0.465634,3.61908 -0.183027,4.94419 -1.523401,3.11293 -2.324377,7.5564 -1.650123,9.15305 0.344584,0.81462 0.812896,1.4837 1.04094,1.4837 1.130767,0 8.571852,5.53183 9.552396,7.10123 1.647305,2.6373 2.097806,2.8186 6.007939,2.42 2.738539,-0.2824 4.083059,-0.1086 5.825814,0.869 1.560561,0.8472 2.633873,1.0427 3.448953,0.6408 0.650857,-0.3259 1.623452,-0.4127 2.161273,-0.2064 z m -4.082001,-8.6849 c -0.241013,-0.9993 -0.793751,-2.40693 -1.228062,-3.13139 -0.4343,-0.72773 -0.963532,-2.28311 -1.176044,-3.46159 -0.347272,-1.92576 -0.230765,-2.14191 1.149222,-2.14191 2.537568,0 10.730959,4.6227 10.730959,6.05425 0,1.55973 -1.461324,2.16474 -3.086667,1.27841 -1.02972,-0.56481 -1.491151,-0.34757 -2.659223,1.26753 -1.76857,2.4363 -3.161326,2.4862 -3.730185,0.1303 z M 45.10851,999.72617 c -4.580409,-4.17194 -4.803093,-6.52021 -0.887585,-9.35943 1.566218,-1.13612 2.529532,-1.37073 4.262898,-1.04271 2.64305,0.49963 3.837441,2.1343 4.80693,6.5604 0.648405,2.95977 0.588232,3.35623 -0.724298,4.77907 -2.046704,2.219 -4.302691,1.9345 -7.457951,-0.94494 z m 2.458502,-4.09916 c 1.451806,-1.25235 1.470091,-1.36422 0.365478,-2.2375 -2.206215,-1.74545 -5.338517,0.54309 -3.623909,2.65023 0.982451,1.20564 1.451172,1.1459 3.258635,-0.41273 z m 22.147984,-8.32107 c -3.07156,-1.51845 -4.828092,-3.782 -5.214868,-6.71788 -0.315053,-2.39172 -0.103561,-2.90982 2.222484,-5.44926 2.178283,-2.37869 2.931811,-2.79252 4.938425,-2.71539 3.283366,0.13034 4.729979,1.07529 6.237427,4.08069 2.263595,4.5195 1.427075,10.22292 -1.593293,10.86375 -0.9026,0.18466 -2.296591,0.47792 -3.097657,0.6517 -0.801067,0.16292 -2.37267,-0.15206 -3.492518,-0.706 z m 1.983178,-8.56001 c 1.335827,-0.52136 1.313524,-1.98332 -0.03595,-2.5112 -1.639305,-0.64083 -3.469063,0.2281 -3.469063,1.63685 0,1.30339 1.47143,1.66942 3.507261,0.87979 z m 12.394371,28.01737 c 0.241035,-0.4018 -0.163818,-1.336 -0.899721,-2.0854 -1.116598,-1.1361 -1.504259,-1.2208 -2.344062,-0.5105 -2.040892,1.7249 -0.602801,5.1766 1.646054,3.9514 0.637675,-0.3475 1.356641,-0.9557 1.597676,-1.3544 z m 36.293845,-5.9847 c 3.00422,-1.10675 3.93071,-3.64836 2.8684,-7.86916 l -0.81621,-3.24327 2.32888,-2.62524 c 3.64505,-4.10894 2.84643,-9.14763 -1.61994,-10.22076 -1.38842,-0.3367 -2.18257,0.10862 -4.53552,2.50034 -2.12667,2.1658 -3.59253,3.04667 -5.76094,3.46485 -3.61272,0.69513 -12.39402,0.53221 -15.30066,-0.28241 -2.171489,-0.60825 -2.172469,-0.60825 -2.172469,1.74328 0,1.63794 0.640235,3.21286 2.103798,5.17664 2.236594,2.99888 4.146091,4.22841 6.568881,4.22841 3.16197,0 5.47974,1.35553 6.21883,3.63646 0.56579,1.74545 1.28907,2.41779 3.43155,3.19116 3.41911,1.2338 4.07645,1.2631 6.68539,0.3041 z M 9.4567666,992.93984 c 0.8397494,-0.39101 2.2146464,-1.99092 3.0553904,-3.55716 1.78091,-3.32039 4.628967,-4.96266 8.608694,-4.96375 l 2.72911,-0.001 0,-5.99125 0,-5.99234 -3.998053,0.43447 c -3.671319,0.40188 -4.059789,0.31498 -4.75296,-0.99926 -0.545966,-1.04271 -0.55919,-1.63576 -0.0482,-2.15711 1.015481,-1.03186 0.87229,-4.20669 -0.208922,-4.62922 -1.337128,-0.52135 -3.570719,0.29327 -6.6690604,2.43301 -3.0371543,2.09845 -3.8283625,3.68424 -2.8076263,5.62629 1.1170744,2.1267 0.8158173,3.5311 -1.9060675,8.88803 -3.23193978,6.36055 -3.32736614,8.36886 -0.485461,10.22293 2.3556816,1.53583 4.223641,1.73351 6.4826258,0.68428 z M 102.75189,959.36126 c 3.75518,-3.16072 5.60341,-3.72877 9.06756,-2.78707 5.23382,1.42286 8.0553,-2.16363 6.46206,-8.21571 -0.25309,-0.95582 -1.27343,-1.75306 -3.01963,-2.3461 -1.45072,-0.48877 -2.87686,-1.3968 -3.16934,-2.00939 -0.29233,-0.60825 -0.8289,-1.63359 -1.19208,-2.26899 -0.36294,-0.62996 -1.09535,-2.11692 -1.62695,-3.2954 -0.8803,-1.95182 -1.22526,-2.14299 -3.86218,-2.14299 -2.70262,0 -2.95918,0.15207 -3.85129,2.32981 -0.71767,1.74872 -0.78476,2.71214 -0.2692,3.86347 0.917,2.04958 -0.5547,4.93441 -3.924906,7.69217 -2.630883,2.15276 -2.663061,2.3537 -0.997415,6.22151 0.468418,1.08725 1.051378,2.7936 1.295456,3.79069 0.244127,0.99926 0.781656,1.8128 1.194642,1.8128 0.412855,0 2.164963,-1.19043 3.893443,-2.6448 z"
         style="fill:#000000;fill-opacity:1;stroke:#926300;stroke-width:1.866871;stroke-miterlimit:4;stroke-opacity:0.9;stroke-dasharray:none" />
    </g>
    <text
       xml:space="preserve"
       style="font-size:16.23807907px;font-style:normal;font-weight:normal;line-height:125%;letter-spacing:0px;word-spacing:0px;color:#000000;fill:#000000;fill-opacity:1;fill-rule:nonzero;stroke:#ffce67;stroke-width:0.33814481;stroke-linecap:butt;stroke-linejoin:miter;stroke-miterlimit:4;stroke-opacity:1;stroke-dasharray:none;stroke-dashoffset:0;marker:none;visibility:visible;display:inline;overflow:visible;enable-background:accumulate;font-family:Sans"
       x="103.16035"
       y="1007.5785"
       id="text4326-4-7"
       sodipodi:linespacing="125%"
       transform="matrix(0.99981478,0.01924572,-0.01924572,0.99981478,0,0)"><tspan
         sodipodi:role="line"
         id="tspan4328-9-4"
         x="103.16035"
         y="1007.5785"
         style="font-style:normal;font-variant:normal;font-weight:normal;font-stretch:normal;color:#000000;fill:#000000;fill-opacity:1;fill-rule:nonzero;stroke:#ffce67;stroke-width:0.33814481;stroke-linecap:butt;stroke-linejoin:miter;stroke-miterlimit:4;stroke-opacity:1;stroke-dasharray:none;stroke-dashoffset:0;marker:none;visibility:visible;display:inline;overflow:visible;enable-background:accumulate;font-family:Xenippa;-inkscape-font-specification:Xenippa">Dive </tspan><tspan
         sodipodi:role="line"
         x="103.16035"
         y="1027.8761"
         style="font-style:normal;font-variant:normal;font-weight:normal;font-stretch:normal;color:#000000;fill:#000000;fill-opacity:1;fill-rule:nonzero;stroke:#ffce67;stroke-width:0.33814481;stroke-linecap:butt;stroke-linejoin:miter;stroke-miterlimit:4;stroke-opacity:1;stroke-dasharray:none;stroke-dashoffset:0;marker:none;visibility:visible;display:inline;overflow:visible;enable-background:accumulate;font-family:Xenippa;-inkscape-font-specification:Xenippa"
         id="tspan3258">Recovery</tspan><tspan
         sodipodi:role="line"
         x="103.16035"
         y="1048.1737"
         style="font-style:normal;font-variant:normal;font-weight:normal;font-stretch:normal;color:#000000;fill:#000000;fill-opacity:1;fill-rule:nonzero;stroke:#ffce67;stroke-width:0.33814481;stroke-linecap:butt;stroke-linejoin:miter;stroke-miterlimit:4;stroke-opacity:1;stroke-dasharray:none;stroke-dashoffset:0;marker:none;visibility:visible;display:inline;overflow:visible;enable-background:accumulate;font-family:Xenippa;-inkscape-font-specification:Xenippa"
         id="tspan3260">Tracker</tspan></text>
  </g>
</svg>
