<?xml version="1.0" encoding="UTF-8" standalone="no"?>
<!-- Created with Inkscape (http://www.inkscape.org/) -->

<svg
   xmlns:dc="http://purl.org/dc/elements/1.1/"
   xmlns:cc="http://creativecommons.org/ns#"
   xmlns:rdf="http://www.w3.org/1999/02/22-rdf-syntax-ns#"
   xmlns:svg="http://www.w3.org/2000/svg"
   xmlns="http://www.w3.org/2000/svg"
   xmlns:sodipodi="http://sodipodi.sourceforge.net/DTD/sodipodi-0.dtd"
   xmlns:inkscape="http://www.inkscape.org/namespaces/inkscape"
   width="24"
   height="30"
   id="svg2"
   version="1.1"
   inkscape:version="0.48.0 r9654"
   sodipodi:docname="arrow.svg"
   inkscape:export-filename="C:\Users\will\Desktop\DiveRTarrow.png"
   inkscape:export-xdpi="90"
   inkscape:export-ydpi="90">
  <defs
     id="defs4" />
  <sodipodi:namedview
     id="base"
     pagecolor="#ffffff"
     bordercolor="#666666"
     borderopacity="1.0"
     inkscape:pageopacity="0.0"
     inkscape:pageshadow="2"
     inkscape:zoom="11.313708"
     inkscape:cx="48.721271"
     inkscape:cy="30.821517"
     inkscape:document-units="px"
     inkscape:current-layer="layer1"
     showgrid="false"
     inkscape:window-width="1920"
     inkscape:window-height="1018"
     inkscape:window-x="-8"
     inkscape:window-y="-8"
     inkscape:window-maximized="1" />
  <metadata
     id="metadata7">
    <rdf:RDF>
      <cc:Work
         rdf:about="">
        <dc:format>image/svg+xml</dc:format>
        <dc:type
           rdf:resource="http://purl.org/dc/dcmitype/StillImage" />
        <dc:title></dc:title>
      </cc:Work>
    </rdf:RDF>
  </metadata>
  <g
     inkscape:label="Layer 1"
     inkscape:groupmode="layer"
     id="layer1"
     transform="translate(0,-1022.3622)">
    <path
       inkscape:connector-curvature="0"
       id="path3802"
       d="m 23.340234,1038.2481 c -0.0904,0.2181 -0.28694,0.1932 -3.8645,-0.4904 -1.82624,-0.3489 -3.34598,-0.6096 -3.3772,-0.5792 -0.0542,0.053 0.066,1.24 0.98962,9.7696 0.45353,4.1884 0.47004,4.4784 0.26634,4.6766 -0.22386,0.2179 -10.55687,0.1971 -10.74337,-0.022 -0.10406,-0.122 0.0447,-1.8469 0.62896,-7.2887 0.42093,-3.9209 0.74809,-7.1456 0.72704,-7.1661 -0.0211,-0.021 -1.59223,0.2622 -3.49151,0.6282 -3.59724996,0.6932 -3.81267996,0.7043 -3.89070996,0.2005 -0.0203,-0.1307 0.40923,-0.8002 1.06596996,-1.6618 0.60492,-0.7937 1.73943,-2.2903 2.52113,-3.3259 0.78171,-1.0356 1.90099,-2.5155 2.48727,-3.2887 0.58629,-0.7732 1.7855,-2.3578 2.66493,-3.5213 2.26823,-3.0009 2.46334,-3.2328 2.71973,-3.2328 0.16061,0 0.9974,1.0196 2.86164,3.4868 1.44907,1.9177 3.441,4.5501 4.42653,5.8498 4.36943,5.762 4.19805,5.5069 4.00813,5.965 z"
       style="fill:#ffffff;fill-opacity:1;stroke:#000000;stroke-width:1.16842878;stroke-miterlimit:4;stroke-opacity:1;stroke-dasharray:none" />
  </g>
</svg>
