<?xml version="1.0" encoding="UTF-8" standalone="no"?>
<!-- Created with Inkscape (http://www.inkscape.org/) -->

<svg
   xmlns:dc="http://purl.org/dc/elements/1.1/"
   xmlns:cc="http://creativecommons.org/ns#"
   xmlns:rdf="http://www.w3.org/1999/02/22-rdf-syntax-ns#"
   xmlns:svg="http://www.w3.org/2000/svg"
   xmlns="http://www.w3.org/2000/svg"
   xmlns:sodipodi="http://sodipodi.sourceforge.net/DTD/sodipodi-0.dtd"
   xmlns:inkscape="http://www.inkscape.org/namespaces/inkscape"
   width="32"
   height="32"
   id="svg2"
   version="1.1"
   inkscape:version="0.48.0 r9654"
   sodipodi:docname="circle.svg"
   inkscape:export-filename="C:\Users\will\Desktop\icons\arrow.png"
   inkscape:export-xdpi="90"
   inkscape:export-ydpi="90">
  <defs
     id="defs4" />
  <sodipodi:namedview
     id="base"
     pagecolor="#ffffff"
     bordercolor="#666666"
     borderopacity="1.0"
     inkscape:pageopacity="0.0"
     inkscape:pageshadow="2"
     inkscape:zoom="2.8284271"
     inkscape:cx="25.970105"
     inkscape:cy="23.154188"
     inkscape:document-units="px"
     inkscape:current-layer="layer1"
     showgrid="false"
     inkscape:window-width="1920"
     inkscape:window-height="1018"
     inkscape:window-x="-8"
     inkscape:window-y="-8"
     inkscape:window-maximized="1"
     showguides="true"
     inkscape:guide-bbox="true" />
  <metadata
     id="metadata7">
    <rdf:RDF>
      <cc:Work
         rdf:about="">
        <dc:format>image/svg+xml</dc:format>
        <dc:type
           rdf:resource="http://purl.org/dc/dcmitype/StillImage" />
        <dc:title></dc:title>
      </cc:Work>
    </rdf:RDF>
  </metadata>
  <g
     inkscape:label="Layer 1"
     inkscape:groupmode="layer"
     id="layer1"
     transform="translate(0,-1020.3622)">
    <path
       inkscape:connector-curvature="0"
       id="path3802"
       d="m 25.460092,1037.0699 c -0.07544,0.1744 -0.23937,0.1545 -3.223786,-0.3919 -1.523467,-0.2785 -2.791242,-0.4872 -2.817286,-0.4632 -0.04527,0.039 0.05504,0.9913 0.825545,7.8096 0.378343,3.3482 0.392116,3.5787 0.222189,3.7384 -0.186749,0.1742 -8.806601,0.1574 -8.962187,-0.017 -0.08676,-0.096 0.03732,-1.4766 0.524686,-5.8262 0.351134,-3.1342 0.624058,-5.7117 0.606495,-5.7281 -0.01762,-0.016 -1.328247,0.2099 -2.912634,0.5023 -3.000847,0.5536 -3.180561,0.5619 -3.245654,0.1599 -0.01694,-0.1096 0.341379,-0.6397 0.889241,-1.328 0.50462,-0.6349 1.451045,-1.8308 2.103142,-2.6592 0.652101,-0.8272 1.585816,-2.0105 2.074897,-2.6289 0.489087,-0.6172 1.489468,-1.8839 2.223094,-2.8142 1.892172,-2.3986 2.05493,-2.5847 2.268816,-2.5847 0.133984,0 0.832042,0.8154 2.3872,2.7873 1.208823,1.5331 2.870502,3.6375 3.692636,4.6761 3.645004,4.6065 3.502037,4.4018 3.343606,4.7683 z"
       style="fill:#ffffff;fill-opacity:1;stroke:#000000;stroke-width:0.95376843;stroke-miterlimit:4;stroke-opacity:1;stroke-dasharray:none" />
    <path
       sodipodi:type="arc"
       style="fill:#ffffff;fill-opacity:1;stroke:#000000;stroke-width:1.16799998;stroke-miterlimit:4;stroke-opacity:1;stroke-dasharray:none"
       id="path2983"
       sodipodi:cx="12.153399"
       sodipodi:cy="13.957514"
       sodipodi:rx="10.827573"
       sodipodi:ry="10.827573"
       d="m 22.980972,13.957514 a 10.827573,10.827573 0 1 1 -21.6551454,0 10.827573,10.827573 0 1 1 21.6551454,0 z"
       transform="matrix(0.8763034,0,0,0.8763034,-34.650065,1024.1312)" />
  </g>
</svg>
